<?xml version="1.0" encoding="UTF-8" standalone="no"?>
<!DOCTYPE svg PUBLIC "-//W3C//DTD SVG 1.1//EN"
 "http://www.w3.org/Graphics/SVG/1.1/DTD/svg11.dtd">
<!-- Generated by graphviz version 2.42.4 (0)
 -->
<!-- Title: G Pages: 1 -->
<svg width="1031pt" height="493pt"
 viewBox="0.00 0.00 1030.90 492.90" xmlns="http://www.w3.org/2000/svg" xmlns:xlink="http://www.w3.org/1999/xlink">
<g id="graph0" class="graph" transform="scale(1 1) rotate(0) translate(25.2 467.7)">
<title>G</title>
<polygon fill="white" stroke="transparent" points="-25.2,25.2 -25.2,-467.7 1005.7,-467.7 1005.7,25.2 -25.2,25.2"/>
<text text-anchor="middle" x="490.25" y="-420.9" font-family="Arial" font-size="22.00">LOCALITO · DIAGRAMA DE CONTEXTO</text>
<g id="clust2" class="cluster">
<title>cluster_ext</title>
<path fill="#f8fafc" stroke="#c8d4e3" d="M255,-8C255,-8 901,-8 901,-8 907,-8 913,-14 913,-20 913,-20 913,-135 913,-135 913,-141 907,-147 901,-147 901,-147 255,-147 255,-147 249,-147 243,-141 243,-135 243,-135 243,-20 243,-20 243,-14 249,-8 255,-8"/>
<text text-anchor="middle" x="578" y="-125.4" font-family="Arial" font-size="22.00">Servicios externos</text>
</g>
<!-- customer -->
<g id="node1" class="node">
<title>customer</title>
<path fill="#ffffff" stroke="#486581" stroke-width="1.4" d="M449.5,-357C449.5,-357 260.5,-357 260.5,-357 254.5,-357 248.5,-351 248.5,-345 248.5,-345 248.5,-323 248.5,-323 248.5,-317 254.5,-311 260.5,-311 260.5,-311 449.5,-311 449.5,-311 455.5,-311 461.5,-317 461.5,-323 461.5,-323 461.5,-345 461.5,-345 461.5,-351 455.5,-357 449.5,-357"/>
<text text-anchor="middle" x="355" y="-337.4" font-family="Arial" font-size="12.00">Cliente final</text>
<text text-anchor="middle" x="355" y="-324.4" font-family="Arial" font-size="12.00">Compra y puede quedar con fiado</text>
</g>
<!-- owner -->
<g id="node2" class="node">
<title>owner</title>
<path fill="#ffffff" stroke="#486581" stroke-width="1.4" d="M773.5,-357C773.5,-357 596.5,-357 596.5,-357 590.5,-357 584.5,-351 584.5,-345 584.5,-345 584.5,-323 584.5,-323 584.5,-317 590.5,-311 596.5,-311 596.5,-311 773.5,-311 773.5,-311 779.5,-311 785.5,-317 785.5,-323 785.5,-323 785.5,-345 785.5,-345 785.5,-351 779.5,-357 773.5,-357"/>
<text text-anchor="middle" x="685" y="-337.4" font-family="Arial" font-size="12.00">Dueño del negocio</text>
<text text-anchor="middle" x="685" y="-324.4" font-family="Arial" font-size="12.00">Administra operación y reportes</text>
</g>
<!-- customer&#45;&gt;owner -->
<g id="edge4" class="edge">
<title>customer&#45;&gt;owner</title>
<path fill="none" stroke="#64748b" stroke-width="1.15" d="M461.69,-334C498.43,-334 539.6,-334 576.49,-334"/>
<polygon fill="#64748b" stroke="#64748b" stroke-width="1.15" points="576.79,-336.63 584.29,-334 576.79,-331.38 576.79,-336.63"/>
<text text-anchor="middle" x="523" y="-340" font-family="Arial" font-size="10.00">compra / pago / fiado</text>
</g>
<!-- seller -->
<g id="node3" class="node">
<title>seller</title>
<path fill="#ffffff" stroke="#486581" stroke-width="1.4" d="M968.5,-357C968.5,-357 827.5,-357 827.5,-357 821.5,-357 815.5,-351 815.5,-345 815.5,-345 815.5,-323 815.5,-323 815.5,-317 821.5,-311 827.5,-311 827.5,-311 968.5,-311 968.5,-311 974.5,-311 980.5,-317 980.5,-323 980.5,-323 980.5,-345 980.5,-345 980.5,-351 974.5,-357 968.5,-357"/>
<text text-anchor="middle" x="898" y="-337.4" font-family="Arial" font-size="12.00">Vendedor</text>
<text text-anchor="middle" x="898" y="-324.4" font-family="Arial" font-size="12.00">Usa POS, clientes y caja</text>
</g>
<!-- customer&#45;&gt;seller -->
<g id="edge5" class="edge">
<title>customer&#45;&gt;seller</title>
<path fill="none" stroke="#64748b" stroke-width="1.15" d="M429.05,-357.07C495.7,-375.05 596.4,-395.38 684.5,-385 727.43,-379.94 774.24,-369.35 813.05,-359.13"/>
<polygon fill="#64748b" stroke="#64748b" stroke-width="1.15" points="814.14,-361.56 820.71,-357.09 812.78,-356.48 814.14,-361.56"/>
<text text-anchor="middle" x="638" y="-385" font-family="Arial" font-size="10.00">compra / pago / fiado</text>
</g>
<!-- localito -->
<g id="node5" class="node">
<title>localito</title>
<path fill="#e8f3f0" stroke="#1f6f5f" stroke-width="2.4" d="M628.5,-250C628.5,-250 365.5,-250 365.5,-250 359.5,-250 353.5,-244 353.5,-238 353.5,-238 353.5,-203 353.5,-203 353.5,-197 359.5,-191 365.5,-191 365.5,-191 628.5,-191 628.5,-191 634.5,-191 640.5,-197 640.5,-203 640.5,-203 640.5,-238 640.5,-238 640.5,-244 634.5,-250 628.5,-250"/>
<text text-anchor="middle" x="497" y="-230.4" font-family="Arial" font-size="12.00">LOCALITO</text>
<text text-anchor="middle" x="497" y="-217.4" font-family="Arial" font-size="12.00">PWA SaaS multi&#45;tenant</text>
<text text-anchor="middle" x="497" y="-204.4" font-family="Arial" font-size="12.00">Ventas · Inventario · Caja · Fiado · Compras · IA</text>
</g>
<!-- owner&#45;&gt;localito -->
<g id="edge1" class="edge">
<title>owner&#45;&gt;localito</title>
<path fill="none" stroke="#64748b" stroke-width="1.15" d="M631.5,-310.92C615.53,-303.65 598.24,-295.09 583,-286 567.71,-276.88 551.87,-265.6 538.02,-255.04"/>
<polygon fill="#64748b" stroke="#64748b" stroke-width="1.15" points="539.35,-252.75 531.8,-250.25 536.14,-256.91 539.35,-252.75"/>
<text text-anchor="middle" x="600" y="-278" font-family="Arial" font-size="10.00">HTTPS</text>
</g>
<!-- pay -->
<g id="node8" class="node">
<title>pay</title>
<path fill="#fefce8" stroke="#a16207" stroke-width="1.4" d="M892.5,-75C892.5,-75 617.5,-75 617.5,-75 611.5,-75 605.5,-69 605.5,-63 605.5,-63 605.5,-28 605.5,-28 605.5,-22 611.5,-16 617.5,-16 617.5,-16 892.5,-16 892.5,-16 898.5,-16 904.5,-22 904.5,-28 904.5,-28 904.5,-63 904.5,-63 904.5,-69 898.5,-75 892.5,-75"/>
<text text-anchor="middle" x="755" y="-55.4" font-family="Arial" font-size="12.00">Medios de pago externos</text>
<text text-anchor="middle" x="755" y="-42.4" font-family="Arial" font-size="12.00">Terminal · transferencia · Webpay · Mercado Pago</text>
<text text-anchor="middle" x="755" y="-29.4" font-family="Arial" font-size="12.00">(uso externo, registro manual o simulación)</text>
</g>
<!-- owner&#45;&gt;pay -->
<g id="edge6" class="edge">
<title>owner&#45;&gt;pay</title>
<path fill="none" stroke="#64748b" stroke-width="1.15" d="M703.72,-310.8C709.12,-303.34 714.5,-294.69 718,-286 745.46,-217.79 752.67,-131.09 754.48,-82.93"/>
<polygon fill="#64748b" stroke="#64748b" stroke-width="1.15" points="757.11,-82.84 754.74,-75.26 751.86,-82.67 757.11,-82.84"/>
<text text-anchor="middle" x="793" y="-218" font-family="Arial" font-size="10.00">cobra fuera de Localito</text>
</g>
<!-- seller&#45;&gt;localito -->
<g id="edge2" class="edge">
<title>seller&#45;&gt;localito</title>
<path fill="none" stroke="#64748b" stroke-width="1.15" d="M818.78,-310.97C758.21,-294.13 674.01,-270.72 606.92,-252.06"/>
<polygon fill="#64748b" stroke="#64748b" stroke-width="1.15" points="607.59,-249.53 599.66,-250.05 606.18,-254.58 607.59,-249.53"/>
<text text-anchor="middle" x="738" y="-278" font-family="Arial" font-size="10.00">HTTPS</text>
</g>
<!-- seller&#45;&gt;pay -->
<g id="edge7" class="edge">
<title>seller&#45;&gt;pay</title>
<path fill="none" stroke="#64748b" stroke-width="1.15" d="M892.36,-310.66C884.72,-282.09 869.74,-231.46 850,-191 830.67,-151.36 802.24,-109.64 781.53,-81.27"/>
<polygon fill="#64748b" stroke="#64748b" stroke-width="1.15" points="783.52,-79.56 776.96,-75.07 779.29,-82.67 783.52,-79.56"/>
<text text-anchor="middle" x="923" y="-218" font-family="Arial" font-size="10.00">cobra fuera de Localito</text>
</g>
<!-- admin -->
<g id="node4" class="node">
<title>admin</title>
<path fill="#ffffff" stroke="#486581" stroke-width="1.4" d="M206,-357C206,-357 12,-357 12,-357 6,-357 0,-351 0,-345 0,-345 0,-323 0,-323 0,-317 6,-311 12,-311 12,-311 206,-311 206,-311 212,-311 218,-317 218,-323 218,-323 218,-345 218,-345 218,-351 212,-357 206,-357"/>
<text text-anchor="middle" x="109" y="-337.4" font-family="Arial" font-size="12.00">Administrador de plataforma</text>
<text text-anchor="middle" x="109" y="-324.4" font-family="Arial" font-size="12.00">Gestiona negocios y suscripciones</text>
</g>
<!-- admin&#45;&gt;localito -->
<g id="edge3" class="edge">
<title>admin&#45;&gt;localito</title>
<path fill="none" stroke="#64748b" stroke-width="1.15" d="M185.66,-310.97C244.14,-294.17 325.4,-270.81 390.25,-252.18"/>
<polygon fill="#64748b" stroke="#64748b" stroke-width="1.15" points="391.18,-254.64 397.67,-250.05 389.73,-249.59 391.18,-254.64"/>
<text text-anchor="middle" x="320" y="-278" font-family="Arial" font-size="10.00">HTTPS</text>
</g>
<!-- ai -->
<g id="node6" class="node">
<title>ai</title>
<path fill="#fff7ed" stroke="#c2410c" stroke-width="1.4" d="M563.5,-68.5C563.5,-68.5 434.5,-68.5 434.5,-68.5 428.5,-68.5 422.5,-62.5 422.5,-56.5 422.5,-56.5 422.5,-34.5 422.5,-34.5 422.5,-28.5 428.5,-22.5 434.5,-22.5 434.5,-22.5 563.5,-22.5 563.5,-22.5 569.5,-22.5 575.5,-28.5 575.5,-34.5 575.5,-34.5 575.5,-56.5 575.5,-56.5 575.5,-62.5 569.5,-68.5 563.5,-68.5"/>
<text text-anchor="middle" x="499" y="-48.9" font-family="Arial" font-size="12.00">Proveedor de IA visual</text>
<text text-anchor="middle" x="499" y="-35.9" font-family="Arial" font-size="12.00">Groq / OpenAI</text>
</g>
<!-- localito&#45;&gt;ai -->
<g id="edge8" class="edge">
<title>localito&#45;&gt;ai</title>
<path fill="none" stroke="#64748b" stroke-width="1.15" d="M542.83,-190.76C550.6,-183.68 557.57,-175.38 562,-166 577.11,-134 552.52,-98.2 529.78,-74.2"/>
<polygon fill="#64748b" stroke="#64748b" stroke-width="1.15" points="531.48,-72.2 524.36,-68.67 527.73,-75.87 531.48,-72.2"/>
<text text-anchor="middle" x="625.5" y="-158" font-family="Arial" font-size="10.00">imagen reducida + catálogo</text>
</g>
<!-- mail -->
<g id="node7" class="node">
<title>mail</title>
<path fill="#eff6ff" stroke="#1d4ed8" stroke-width="1.4" d="M380.5,-68.5C380.5,-68.5 263.5,-68.5 263.5,-68.5 257.5,-68.5 251.5,-62.5 251.5,-56.5 251.5,-56.5 251.5,-34.5 251.5,-34.5 251.5,-28.5 257.5,-22.5 263.5,-22.5 263.5,-22.5 380.5,-22.5 380.5,-22.5 386.5,-22.5 392.5,-28.5 392.5,-34.5 392.5,-34.5 392.5,-56.5 392.5,-56.5 392.5,-62.5 386.5,-68.5 380.5,-68.5"/>
<text text-anchor="middle" x="322" y="-48.9" font-family="Arial" font-size="12.00">Proveedor de correo</text>
<text text-anchor="middle" x="322" y="-35.9" font-family="Arial" font-size="12.00">Gmail / Resend</text>
</g>
<!-- localito&#45;&gt;mail -->
<g id="edge10" class="edge">
<title>localito&#45;&gt;mail</title>
<path fill="none" stroke="#64748b" stroke-width="1.15" d="M371.41,-190.91C359.94,-184.27 349.48,-176.08 341,-166 320.17,-141.23 317.53,-102.99 318.73,-76.47"/>
<polygon fill="#64748b" stroke="#64748b" stroke-width="1.15" points="321.37,-76.29 319.21,-68.64 316.13,-75.97 321.37,-76.29"/>
<text text-anchor="middle" x="393" y="-158" font-family="Arial" font-size="10.00">recuperación de acceso</text>
</g>
<!-- ai&#45;&gt;localito -->
<g id="edge9" class="edge">
<title>ai&#45;&gt;localito</title>
<path fill="none" stroke="#64748b" stroke-width="1.15" d="M481.14,-68.87C464.28,-92.81 443.23,-131.94 455,-166 457.24,-172.47 460.62,-178.76 464.51,-184.62"/>
<polygon fill="#64748b" stroke="#64748b" stroke-width="1.15" points="462.41,-186.2 468.9,-190.78 466.69,-183.15 462.41,-186.2"/>
<text text-anchor="middle" x="505" y="-158" font-family="Arial" font-size="10.00">propuesta estructurada</text>
</g>
</g>
</svg>
