<?xml version="1.0" encoding="UTF-8" standalone="no"?>
<!DOCTYPE svg PUBLIC "-//W3C//DTD SVG 1.1//EN"
 "http://www.w3.org/Graphics/SVG/1.1/DTD/svg11.dtd">
<!-- Generated by graphviz version 2.42.4 (0)
 -->
<!-- Title: G Pages: 1 -->
<svg width="832pt" height="429pt"
 viewBox="0.00 0.00 831.61 429.40" xmlns="http://www.w3.org/2000/svg" xmlns:xlink="http://www.w3.org/1999/xlink">
<g id="graph0" class="graph" transform="scale(1 1) rotate(0) translate(25.2 404.2)">
<title>G</title>
<polygon fill="white" stroke="transparent" points="-25.2,25.2 -25.2,-404.2 806.41,-404.2 806.41,25.2 -25.2,25.2"/>
<text text-anchor="middle" x="390.61" y="-357.4" font-family="Arial" font-size="22.00">LOCALITO · VISTA DE IMPLEMENTACIÓN</text>
<!-- root -->
<g id="node1" class="node">
<title>root</title>
<polygon fill="#e8f3f0" stroke="#1f6f5f" stroke-width="2.1" points="354.56,-347 351.56,-351 330.56,-351 327.56,-347 196.56,-347 196.56,-311 354.56,-311 354.56,-347"/>
<text text-anchor="middle" x="275.56" y="-326.3" font-family="Arial" font-size="11.50">Repositorio LocalitoSaaS</text>
</g>
<!-- web -->
<g id="node2" class="node">
<title>web</title>
<polygon fill="#ffffff" stroke="#486581" stroke-width="1.2" points="178.56,-151 175.56,-155 154.56,-155 151.56,-151 26.56,-151 26.56,-107 178.56,-107 178.56,-151"/>
<text text-anchor="middle" x="102.56" y="-132.8" font-family="Arial" font-size="11.50">apps/web</text>
<text text-anchor="middle" x="102.56" y="-119.8" font-family="Arial" font-size="11.50">React · Vite · TypeScript</text>
</g>
<!-- root&#45;&gt;web -->
<g id="edge1" class="edge">
<title>root&#45;&gt;web</title>
<path fill="none" stroke="#64748b" stroke-width="1.05" d="M196.15,-321.28C153.83,-313.18 105.14,-295.66 78.56,-258 57.64,-228.37 72.36,-185.62 86.27,-157.82"/>
<polygon fill="#64748b" stroke="#64748b" stroke-width="1.05" points="88.68,-158.64 89.76,-151.09 84.21,-156.32 88.68,-158.64"/>
</g>
<!-- api -->
<g id="node3" class="node">
<title>api</title>
<polygon fill="#ffffff" stroke="#486581" stroke-width="1.2" points="346.06,-151 343.06,-155 322.06,-155 319.06,-151 211.06,-151 211.06,-107 346.06,-107 346.06,-151"/>
<text text-anchor="middle" x="278.56" y="-132.8" font-family="Arial" font-size="11.50">apps/api</text>
<text text-anchor="middle" x="278.56" y="-119.8" font-family="Arial" font-size="11.50">Express · TypeScript</text>
</g>
<!-- root&#45;&gt;api -->
<g id="edge2" class="edge">
<title>root&#45;&gt;api</title>
<path fill="none" stroke="#64748b" stroke-width="1.05" d="M275.82,-310.78C276.34,-276.67 277.49,-200.26 278.13,-158.53"/>
<polygon fill="#64748b" stroke="#64748b" stroke-width="1.05" points="280.65,-158.4 278.24,-151.16 275.61,-158.32 280.65,-158.4"/>
</g>
<!-- shared -->
<g id="node4" class="node">
<title>shared</title>
<polygon fill="#f8fafc" stroke="#486581" stroke-width="1.2" points="174.06,-44 171.06,-48 150.06,-48 147.06,-44 31.06,-44 31.06,0 174.06,0 174.06,-44"/>
<text text-anchor="middle" x="102.56" y="-25.8" font-family="Arial" font-size="11.50">packages/shared</text>
<text text-anchor="middle" x="102.56" y="-12.8" font-family="Arial" font-size="11.50">contratos compartidos</text>
</g>
<!-- root&#45;&gt;shared -->
<g id="edge3" class="edge">
<title>root&#45;&gt;shared</title>
<path fill="none" stroke="#64748b" stroke-width="1.05" d="M196.36,-322.99C149.58,-315.64 93.29,-298.29 60.56,-258 15.98,-203.13 -17.97,-171.68 10.56,-107 21.08,-83.15 42.09,-63.14 61.37,-48.63"/>
<polygon fill="#64748b" stroke="#64748b" stroke-width="1.05" points="62.96,-50.59 67.29,-44.31 59.99,-46.52 62.96,-50.59"/>
</g>
<!-- db -->
<g id="node5" class="node">
<title>db</title>
<polygon fill="#f0fdfa" stroke="#0f766e" stroke-width="1.2" points="728.06,-44 725.06,-48 704.06,-48 701.06,-44 593.06,-44 593.06,0 728.06,0 728.06,-44"/>
<text text-anchor="middle" x="660.56" y="-25.8" font-family="Arial" font-size="11.50">db</text>
<text text-anchor="middle" x="660.56" y="-12.8" font-family="Arial" font-size="11.50">schema PostgreSQL</text>
</g>
<!-- root&#45;&gt;db -->
<g id="edge4" class="edge">
<title>root&#45;&gt;db</title>
<path fill="none" stroke="#64748b" stroke-width="1.05" d="M354.72,-328.62C478.9,-327.7 710.75,-317.79 762.56,-258 817.81,-194.24 735.18,-95.94 688.66,-49.3"/>
<polygon fill="#64748b" stroke="#64748b" stroke-width="1.05" points="690.35,-47.42 683.46,-44.14 686.8,-51 690.35,-47.42"/>
</g>
<!-- scripts -->
<g id="node6" class="node">
<title>scripts</title>
<polygon fill="#ffffff" stroke="#486581" stroke-width="1.2" points="524.56,-258 521.56,-262 500.56,-262 497.56,-258 324.56,-258 324.56,-214 524.56,-214 524.56,-258"/>
<text text-anchor="middle" x="424.56" y="-239.8" font-family="Arial" font-size="11.50">scripts</text>
<text text-anchor="middle" x="424.56" y="-226.8" font-family="Arial" font-size="11.50">pruebas · hardening · navegador</text>
</g>
<!-- root&#45;&gt;scripts -->
<g id="edge5" class="edge">
<title>root&#45;&gt;scripts</title>
<path fill="none" stroke="#64748b" stroke-width="1.05" d="M303.58,-310.88C326.2,-297.07 358.33,-277.45 383.79,-261.9"/>
<polygon fill="#64748b" stroke="#64748b" stroke-width="1.05" points="385.28,-263.94 390.11,-258.04 382.65,-259.64 385.28,-263.94"/>
</g>
<!-- docs -->
<g id="node7" class="node">
<title>docs</title>
<polygon fill="#ffffff" stroke="#486581" stroke-width="1.2" points="746.06,-258 743.06,-262 722.06,-262 719.06,-258 557.06,-258 557.06,-214 746.06,-214 746.06,-258"/>
<text text-anchor="middle" x="651.56" y="-239.8" font-family="Arial" font-size="11.50">docs</text>
<text text-anchor="middle" x="651.56" y="-226.8" font-family="Arial" font-size="11.50">backlog · QA · tesis · operación</text>
</g>
<!-- root&#45;&gt;docs -->
<g id="edge6" class="edge">
<title>root&#45;&gt;docs</title>
<path fill="none" stroke="#64748b" stroke-width="1.05" d="M345.84,-310.99C405.62,-296.52 491.98,-275.62 557.67,-259.72"/>
<polygon fill="#64748b" stroke="#64748b" stroke-width="1.05" points="558.36,-262.15 564.77,-258.01 557.18,-257.25 558.36,-262.15"/>
</g>
<!-- ci -->
<g id="node8" class="node">
<title>ci</title>
<polygon fill="#f8fafc" stroke="#486581" stroke-width="1.2" points="226.56,-258 223.56,-262 202.56,-262 199.56,-258 94.56,-258 94.56,-214 226.56,-214 226.56,-258"/>
<text text-anchor="middle" x="160.56" y="-239.8" font-family="Arial" font-size="11.50">.github/workflows</text>
<text text-anchor="middle" x="160.56" y="-226.8" font-family="Arial" font-size="11.50">integración continua</text>
</g>
<!-- root&#45;&gt;ci -->
<g id="edge7" class="edge">
<title>root&#45;&gt;ci</title>
<path fill="none" stroke="#64748b" stroke-width="1.05" d="M253.93,-310.88C236.83,-297.35 212.68,-278.25 193.23,-262.85"/>
<polygon fill="#64748b" stroke="#64748b" stroke-width="1.05" points="194.56,-260.7 187.35,-258.2 191.44,-264.65 194.56,-260.7"/>
</g>
<!-- web&#45;&gt;shared -->
<g id="edge8" class="edge">
<title>web&#45;&gt;shared</title>
<path fill="none" stroke="#64748b" stroke-width="1.05" stroke-dasharray="5,2" d="M102.56,-106.75C102.56,-90.95 102.56,-69.22 102.56,-51.85"/>
<polygon fill="#64748b" stroke="#64748b" stroke-width="1.05" points="105.08,-51.42 102.56,-44.22 100.04,-51.42 105.08,-51.42"/>
<text text-anchor="middle" x="133.56" y="-73.32" font-family="Arial" font-size="9.60">consume tipos</text>
</g>
<!-- api&#45;&gt;shared -->
<g id="edge9" class="edge">
<title>api&#45;&gt;shared</title>
<path fill="none" stroke="#64748b" stroke-width="1.05" stroke-dasharray="5,2" d="M242.94,-106.75C214.34,-89.69 174.13,-65.7 144.07,-47.77"/>
<polygon fill="#64748b" stroke="#64748b" stroke-width="1.05" points="145.29,-45.56 137.82,-44.04 142.71,-49.89 145.29,-45.56"/>
<text text-anchor="middle" x="227.56" y="-73.32" font-family="Arial" font-size="9.60">consume tipos</text>
</g>
<!-- api&#45;&gt;db -->
<g id="edge10" class="edge">
<title>api&#45;&gt;db</title>
<path fill="none" stroke="#64748b" stroke-width="1.05" stroke-dasharray="5,2" d="M346.41,-109.35C413.67,-90.86 516.46,-62.61 585.97,-43.5"/>
<polygon fill="#64748b" stroke="#64748b" stroke-width="1.05" points="586.74,-45.9 593.02,-41.57 585.4,-41.04 586.74,-45.9"/>
<text text-anchor="middle" x="510.56" y="-73.32" font-family="Arial" font-size="9.60">usa esquema</text>
</g>
<!-- ci&#45;&gt;web -->
<g id="edge11" class="edge">
<title>ci&#45;&gt;web</title>
<path fill="none" stroke="#64748b" stroke-width="1.05" stroke-dasharray="5,2" d="M142.93,-213.81C136.94,-206 130.51,-196.88 125.56,-188 120.29,-178.56 115.64,-167.67 111.92,-157.89"/>
<polygon fill="#64748b" stroke="#64748b" stroke-width="1.05" points="114.23,-156.89 109.38,-151 109.5,-158.63 114.23,-156.89"/>
<text text-anchor="middle" x="141.06" y="-180.32" font-family="Arial" font-size="9.60">verifica</text>
</g>
<!-- ci&#45;&gt;api -->
<g id="edge12" class="edge">
<title>ci&#45;&gt;api</title>
<path fill="none" stroke="#64748b" stroke-width="1.05" stroke-dasharray="5,2" d="M181.08,-213.79C192.19,-202.56 206.33,-188.71 219.56,-177 227.6,-169.88 236.55,-162.49 245,-155.74"/>
<polygon fill="#64748b" stroke="#64748b" stroke-width="1.05" points="246.68,-157.63 250.75,-151.18 243.54,-153.68 246.68,-157.63"/>
<text text-anchor="middle" x="235.06" y="-180.32" font-family="Arial" font-size="9.60">verifica</text>
</g>
</g>
</svg>
