<?xml version="1.0" encoding="UTF-8" standalone="no"?>
<!DOCTYPE svg PUBLIC "-//W3C//DTD SVG 1.1//EN"
 "http://www.w3.org/Graphics/SVG/1.1/DTD/svg11.dtd">
<!-- Generated by graphviz version 2.42.4 (0)
 -->
<!-- Title: G Pages: 1 -->
<svg width="499pt" height="658pt"
 viewBox="0.00 0.00 499.40 658.40" xmlns="http://www.w3.org/2000/svg" xmlns:xlink="http://www.w3.org/1999/xlink">
<g id="graph0" class="graph" transform="scale(1 1) rotate(0) translate(25.2 633.2)">
<title>G</title>
<polygon fill="white" stroke="transparent" points="-25.2,25.2 -25.2,-633.2 474.2,-633.2 474.2,25.2 -25.2,25.2"/>
<text text-anchor="middle" x="224.5" y="-586.4" font-family="Arial" font-size="22.00">LOCALITO · FLUJO ETL/ELT PROPUESTO</text>
<!-- a -->
<g id="node1" class="node">
<title>a</title>
<path fill="#ffffff" stroke="#486581" stroke-width="1.2" d="M385.5,-576C385.5,-576 63.5,-576 63.5,-576 57.5,-576 51.5,-570 51.5,-564 51.5,-564 51.5,-544 51.5,-544 51.5,-538 57.5,-532 63.5,-532 63.5,-532 385.5,-532 385.5,-532 391.5,-532 397.5,-538 397.5,-544 397.5,-544 397.5,-564 397.5,-564 397.5,-570 391.5,-576 385.5,-576"/>
<text text-anchor="middle" x="224.5" y="-557.8" font-family="Arial" font-size="11.50">1. Extraer desde OLTP</text>
<text text-anchor="middle" x="224.5" y="-544.8" font-family="Arial" font-size="11.50">solo registros necesarios por tenant/período</text>
</g>
<!-- b -->
<g id="node2" class="node">
<title>b</title>
<path fill="#ffffff" stroke="#486581" stroke-width="1.2" d="M385.5,-500C385.5,-500 63.5,-500 63.5,-500 57.5,-500 51.5,-494 51.5,-488 51.5,-488 51.5,-468 51.5,-468 51.5,-462 57.5,-456 63.5,-456 63.5,-456 385.5,-456 385.5,-456 391.5,-456 397.5,-462 397.5,-468 397.5,-468 397.5,-488 397.5,-488 397.5,-494 391.5,-500 385.5,-500"/>
<text text-anchor="middle" x="224.5" y="-481.8" font-family="Arial" font-size="11.50">2. Validar staging</text>
<text text-anchor="middle" x="224.5" y="-468.8" font-family="Arial" font-size="11.50">FK existentes · fechas · montos · duplicados</text>
</g>
<!-- a&#45;&gt;b -->
<g id="edge1" class="edge">
<title>a&#45;&gt;b</title>
<path fill="none" stroke="#64748b" stroke-width="1.05" d="M224.5,-531.99C224.5,-524.42 224.5,-515.73 224.5,-507.61"/>
<polygon fill="#64748b" stroke="#64748b" stroke-width="1.05" points="227.13,-507.56 224.5,-500.06 221.88,-507.56 227.13,-507.56"/>
</g>
<!-- c -->
<g id="node3" class="node">
<title>c</title>
<path fill="#ffffff" stroke="#486581" stroke-width="1.2" d="M385.5,-424C385.5,-424 63.5,-424 63.5,-424 57.5,-424 51.5,-418 51.5,-412 51.5,-412 51.5,-392 51.5,-392 51.5,-386 57.5,-380 63.5,-380 63.5,-380 385.5,-380 385.5,-380 391.5,-380 397.5,-386 397.5,-392 397.5,-392 397.5,-412 397.5,-412 397.5,-418 391.5,-424 385.5,-424"/>
<text text-anchor="middle" x="224.5" y="-405.8" font-family="Arial" font-size="11.50">3. Cargar DimFecha</text>
<text text-anchor="middle" x="224.5" y="-392.8" font-family="Arial" font-size="11.50">calendario analítico</text>
</g>
<!-- b&#45;&gt;c -->
<g id="edge2" class="edge">
<title>b&#45;&gt;c</title>
<path fill="none" stroke="#64748b" stroke-width="1.05" d="M224.5,-455.99C224.5,-448.42 224.5,-439.73 224.5,-431.61"/>
<polygon fill="#64748b" stroke="#64748b" stroke-width="1.05" points="227.13,-431.56 224.5,-424.06 221.88,-431.56 227.13,-431.56"/>
</g>
<!-- d -->
<g id="node4" class="node">
<title>d</title>
<path fill="#ffffff" stroke="#486581" stroke-width="1.2" d="M385.5,-348C385.5,-348 63.5,-348 63.5,-348 57.5,-348 51.5,-342 51.5,-336 51.5,-336 51.5,-316 51.5,-316 51.5,-310 57.5,-304 63.5,-304 63.5,-304 385.5,-304 385.5,-304 391.5,-304 397.5,-310 397.5,-316 397.5,-316 397.5,-336 397.5,-336 397.5,-342 391.5,-348 385.5,-348"/>
<text text-anchor="middle" x="224.5" y="-329.8" font-family="Arial" font-size="11.50">4. Upsert dimensiones</text>
<text text-anchor="middle" x="224.5" y="-316.8" font-family="Arial" font-size="11.50">Negocio · Producto · Cliente · Usuario · Pago · Venta</text>
</g>
<!-- c&#45;&gt;d -->
<g id="edge3" class="edge">
<title>c&#45;&gt;d</title>
<path fill="none" stroke="#64748b" stroke-width="1.05" d="M224.5,-379.99C224.5,-372.42 224.5,-363.73 224.5,-355.61"/>
<polygon fill="#64748b" stroke="#64748b" stroke-width="1.05" points="227.13,-355.56 224.5,-348.06 221.88,-355.56 227.13,-355.56"/>
</g>
<!-- e -->
<g id="node5" class="node">
<title>e</title>
<path fill="#ffffff" stroke="#486581" stroke-width="1.2" d="M385.5,-272C385.5,-272 63.5,-272 63.5,-272 57.5,-272 51.5,-266 51.5,-260 51.5,-260 51.5,-240 51.5,-240 51.5,-234 57.5,-228 63.5,-228 63.5,-228 385.5,-228 385.5,-228 391.5,-228 397.5,-234 397.5,-240 397.5,-240 397.5,-260 397.5,-260 397.5,-266 391.5,-272 385.5,-272"/>
<text text-anchor="middle" x="224.5" y="-253.8" font-family="Arial" font-size="11.50">5. Resolver surrogate keys</text>
<text text-anchor="middle" x="224.5" y="-240.8" font-family="Arial" font-size="11.50">Business Key UUID → BI Key</text>
</g>
<!-- d&#45;&gt;e -->
<g id="edge4" class="edge">
<title>d&#45;&gt;e</title>
<path fill="none" stroke="#64748b" stroke-width="1.05" d="M224.5,-303.99C224.5,-296.42 224.5,-287.73 224.5,-279.61"/>
<polygon fill="#64748b" stroke="#64748b" stroke-width="1.05" points="227.13,-279.56 224.5,-272.06 221.88,-279.56 227.13,-279.56"/>
</g>
<!-- f -->
<g id="node6" class="node">
<title>f</title>
<path fill="#e8f3f0" stroke="#1f6f5f" stroke-width="1.2" d="M385.5,-196C385.5,-196 63.5,-196 63.5,-196 57.5,-196 51.5,-190 51.5,-184 51.5,-184 51.5,-164 51.5,-164 51.5,-158 57.5,-152 63.5,-152 63.5,-152 385.5,-152 385.5,-152 391.5,-152 397.5,-158 397.5,-164 397.5,-164 397.5,-184 397.5,-184 397.5,-190 391.5,-196 385.5,-196"/>
<text text-anchor="middle" x="224.5" y="-177.8" font-family="Arial" font-size="11.50">6. Cargar FactVentaDetalle</text>
<text text-anchor="middle" x="224.5" y="-164.8" font-family="Arial" font-size="11.50">asignar descuento proporcional y neto línea</text>
</g>
<!-- e&#45;&gt;f -->
<g id="edge5" class="edge">
<title>e&#45;&gt;f</title>
<path fill="none" stroke="#64748b" stroke-width="1.05" d="M224.5,-227.99C224.5,-220.42 224.5,-211.73 224.5,-203.61"/>
<polygon fill="#64748b" stroke="#64748b" stroke-width="1.05" points="227.13,-203.56 224.5,-196.06 221.88,-203.56 227.13,-203.56"/>
</g>
<!-- g -->
<g id="node7" class="node">
<title>g</title>
<path fill="#ffffff" stroke="#486581" stroke-width="1.2" d="M385.5,-120C385.5,-120 63.5,-120 63.5,-120 57.5,-120 51.5,-114 51.5,-108 51.5,-108 51.5,-88 51.5,-88 51.5,-82 57.5,-76 63.5,-76 63.5,-76 385.5,-76 385.5,-76 391.5,-76 397.5,-82 397.5,-88 397.5,-88 397.5,-108 397.5,-108 397.5,-114 391.5,-120 385.5,-120"/>
<text text-anchor="middle" x="224.5" y="-101.8" font-family="Arial" font-size="11.50">7. Ejecutar pruebas de calidad</text>
<text text-anchor="middle" x="224.5" y="-88.8" font-family="Arial" font-size="11.50">reconciliación OLTP ↔ Data Mart</text>
</g>
<!-- f&#45;&gt;g -->
<g id="edge6" class="edge">
<title>f&#45;&gt;g</title>
<path fill="none" stroke="#64748b" stroke-width="1.05" d="M224.5,-151.99C224.5,-144.42 224.5,-135.73 224.5,-127.61"/>
<polygon fill="#64748b" stroke="#64748b" stroke-width="1.05" points="227.13,-127.56 224.5,-120.06 221.88,-127.56 227.13,-127.56"/>
</g>
<!-- h -->
<g id="node8" class="node">
<title>h</title>
<path fill="#eff6ff" stroke="#1d4ed8" stroke-width="1.2" d="M385.5,-44C385.5,-44 63.5,-44 63.5,-44 57.5,-44 51.5,-38 51.5,-32 51.5,-32 51.5,-12 51.5,-12 51.5,-6 57.5,0 63.5,0 63.5,0 385.5,0 385.5,0 391.5,0 397.5,-6 397.5,-12 397.5,-12 397.5,-32 397.5,-32 397.5,-38 391.5,-44 385.5,-44"/>
<text text-anchor="middle" x="224.5" y="-25.8" font-family="Arial" font-size="11.50">8. Refrescar dashboard / medidas</text>
<text text-anchor="middle" x="224.5" y="-12.8" font-family="Arial" font-size="11.50">sin escribir de vuelta al OLTP</text>
</g>
<!-- g&#45;&gt;h -->
<g id="edge7" class="edge">
<title>g&#45;&gt;h</title>
<path fill="none" stroke="#64748b" stroke-width="1.05" d="M224.5,-75.99C224.5,-68.42 224.5,-59.73 224.5,-51.61"/>
<polygon fill="#64748b" stroke="#64748b" stroke-width="1.05" points="227.13,-51.56 224.5,-44.06 221.88,-51.56 227.13,-51.56"/>
</g>
</g>
</svg>
