<?xml version="1.0" encoding="UTF-8" standalone="no"?>
<!DOCTYPE svg PUBLIC "-//W3C//DTD SVG 1.1//EN"
 "http://www.w3.org/Graphics/SVG/1.1/DTD/svg11.dtd">
<!-- Generated by graphviz version 2.42.4 (0)
 -->
<!-- Title: G Pages: 1 -->
<svg width="952pt" height="448pt"
 viewBox="0.00 0.00 952.40 448.40" xmlns="http://www.w3.org/2000/svg" xmlns:xlink="http://www.w3.org/1999/xlink">
<g id="graph0" class="graph" transform="scale(1 1) rotate(0) translate(25.2 423.2)">
<title>G</title>
<polygon fill="white" stroke="transparent" points="-25.2,25.2 -25.2,-423.2 927.2,-423.2 927.2,25.2 -25.2,25.2"/>
<text text-anchor="middle" x="451" y="-376.4" font-family="Arial" font-size="22.00">LOCALITO · CAMBIO ADAPTATIVO MEDIANTE PRODUCT BACKLOG</text>
<!-- input -->
<g id="node1" class="node">
<title>input</title>
<path fill="#ffffff" stroke="#486581" stroke-width="1.2" d="M334,-366C334,-366 12,-366 12,-366 6,-366 0,-360 0,-354 0,-354 0,-334 0,-334 0,-328 6,-322 12,-322 12,-322 334,-322 334,-322 340,-322 346,-328 346,-334 346,-334 346,-354 346,-354 346,-360 340,-366 334,-366"/>
<text text-anchor="middle" x="173" y="-347.8" font-family="Arial" font-size="11.50">Nueva información</text>
<text text-anchor="middle" x="173" y="-334.8" font-family="Arial" font-size="11.50">feedback · riesgo · defecto · dependencia · hallazgo</text>
</g>
<!-- check -->
<g id="node2" class="node">
<title>check</title>
<path fill="#fffbeb" stroke="#d97706" stroke-width="1.2" d="M334,-289C334,-289 12,-289 12,-289 6,-289 0,-283 0,-277 0,-277 0,-257 0,-257 0,-251 6,-245 12,-245 12,-245 334,-245 334,-245 340,-245 346,-251 346,-257 346,-257 346,-277 346,-277 346,-283 340,-289 334,-289"/>
<text text-anchor="middle" x="173" y="-270.8" font-family="Arial" font-size="11.50">¿Afecta Product Goal / alcance académico?</text>
<text text-anchor="middle" x="173" y="-257.8" font-family="Arial" font-size="11.50">PO analiza valor, urgencia, riesgo y evidencia</text>
</g>
<!-- input&#45;&gt;check -->
<g id="edge1" class="edge">
<title>input&#45;&gt;check</title>
<path fill="none" stroke="#64748b" d="M173,-321.71C173,-313.88 173,-304.89 173,-296.53"/>
<polygon fill="#64748b" stroke="#64748b" points="175.59,-296.48 173,-289.09 170.41,-296.49 175.59,-296.48"/>
</g>
<!-- pb -->
<g id="node3" class="node">
<title>pb</title>
<path fill="#ffffff" stroke="#486581" stroke-width="1.2" d="M334,-212C334,-212 12,-212 12,-212 6,-212 0,-206 0,-200 0,-200 0,-180 0,-180 0,-174 6,-168 12,-168 12,-168 334,-168 334,-168 340,-168 346,-174 346,-180 346,-180 346,-200 346,-200 346,-206 340,-212 334,-212"/>
<text text-anchor="middle" x="173" y="-193.8" font-family="Arial" font-size="11.50">Crear/actualizar PBI</text>
<text text-anchor="middle" x="173" y="-180.8" font-family="Arial" font-size="11.50">HU · Bug · Task · Spike</text>
</g>
<!-- check&#45;&gt;pb -->
<g id="edge2" class="edge">
<title>check&#45;&gt;pb</title>
<path fill="none" stroke="#64748b" d="M173,-244.71C173,-236.88 173,-227.89 173,-219.53"/>
<polygon fill="#64748b" stroke="#64748b" points="175.59,-219.48 173,-212.09 170.41,-219.49 175.59,-219.48"/>
</g>
<!-- refine -->
<g id="node4" class="node">
<title>refine</title>
<path fill="#ffffff" stroke="#486581" stroke-width="1.2" d="M334,-135C334,-135 12,-135 12,-135 6,-135 0,-129 0,-123 0,-123 0,-103 0,-103 0,-97 6,-91 12,-91 12,-91 334,-91 334,-91 340,-91 346,-97 346,-103 346,-103 346,-123 346,-123 346,-129 340,-135 334,-135"/>
<text text-anchor="middle" x="173" y="-116.8" font-family="Arial" font-size="11.50">Refinement</text>
<text text-anchor="middle" x="173" y="-103.8" font-family="Arial" font-size="11.50">criterios · tamaño · dependencias · prioridad</text>
</g>
<!-- pb&#45;&gt;refine -->
<g id="edge3" class="edge">
<title>pb&#45;&gt;refine</title>
<path fill="none" stroke="#64748b" d="M173,-167.71C173,-159.88 173,-150.89 173,-142.53"/>
<polygon fill="#64748b" stroke="#64748b" points="175.59,-142.48 173,-135.09 170.41,-142.49 175.59,-142.48"/>
</g>
<!-- future -->
<g id="node5" class="node">
<title>future</title>
<path fill="#ffffff" stroke="#486581" stroke-width="1.2" d="M705,-44C705,-44 383,-44 383,-44 377,-44 371,-38 371,-32 371,-32 371,-12 371,-12 371,-6 377,0 383,0 383,0 705,0 705,0 711,0 717,-6 717,-12 717,-12 717,-32 717,-32 717,-38 711,-44 705,-44"/>
<text text-anchor="middle" x="544" y="-25.8" font-family="Arial" font-size="11.50">Próximo Sprint posible</text>
<text text-anchor="middle" x="544" y="-12.8" font-family="Arial" font-size="11.50">si contribuye al objetivo</text>
</g>
<!-- refine&#45;&gt;future -->
<g id="edge4" class="edge">
<title>refine&#45;&gt;future</title>
<path fill="none" stroke="#64748b" d="M279.11,-91C302.83,-86.01 327.82,-80.53 351,-75 387.87,-66.21 428.42,-55.45 462.78,-46.01"/>
<polygon fill="#64748b" stroke="#64748b" points="463.58,-48.48 470.02,-44.01 462.2,-43.48 463.58,-48.48"/>
</g>
<!-- no -->
<g id="node6" class="node">
<title>no</title>
<path fill="#ffffff" stroke="#486581" stroke-width="1.2" d="M334,-44C334,-44 12,-44 12,-44 6,-44 0,-38 0,-32 0,-32 0,-12 0,-12 0,-6 6,0 12,0 12,0 334,0 334,0 340,0 346,-6 346,-12 346,-12 346,-32 346,-32 346,-38 340,-44 334,-44"/>
<text text-anchor="middle" x="173" y="-25.8" font-family="Arial" font-size="11.50">Roadmap / fuera de alcance</text>
<text text-anchor="middle" x="173" y="-12.8" font-family="Arial" font-size="11.50">no comprometer Sprint activo</text>
</g>
<!-- refine&#45;&gt;no -->
<g id="edge5" class="edge">
<title>refine&#45;&gt;no</title>
<path fill="none" stroke="#64748b" stroke-dasharray="5,2" d="M173,-90.91C173,-79.24 173,-64.58 173,-51.87"/>
<polygon fill="#64748b" stroke="#64748b" points="175.59,-51.65 173,-44.25 170.41,-51.65 175.59,-51.65"/>
<text text-anchor="middle" x="259" y="-63.8" font-family="Times,serif" font-size="14.00">si no corresponde ahora</text>
</g>
<!-- sprint -->
<g id="node7" class="node">
<title>sprint</title>
<path fill="#e8f3f0" stroke="#1f6f5f" stroke-width="2" d="M705,-135C705,-135 383,-135 383,-135 377,-135 371,-129 371,-123 371,-123 371,-103 371,-103 371,-97 377,-91 383,-91 383,-91 705,-91 705,-91 711,-91 717,-97 717,-103 717,-103 717,-123 717,-123 717,-129 711,-135 705,-135"/>
<text text-anchor="middle" x="544" y="-116.8" font-family="Arial" font-size="11.50">Sprint activo</text>
<text text-anchor="middle" x="544" y="-103.8" font-family="Arial" font-size="11.50">Sprint Goal protegido</text>
</g>
<!-- sprint&#45;&gt;future -->
<g id="edge6" class="edge">
<title>sprint&#45;&gt;future</title>
<path fill="none" stroke="#64748b" stroke-dasharray="5,2" d="M544,-90.91C544,-79.24 544,-64.58 544,-51.87"/>
<polygon fill="#64748b" stroke="#64748b" points="546.59,-51.65 544,-44.25 541.41,-51.65 546.59,-51.65"/>
<text text-anchor="middle" x="723" y="-63.8" font-family="Times,serif" font-size="14.00">solo renegociar con PO si Sprint Goal sigue viable</text>
</g>
</g>
</svg>
