<?xml version="1.0" encoding="UTF-8" standalone="no"?>
<!DOCTYPE svg PUBLIC "-//W3C//DTD SVG 1.1//EN"
 "http://www.w3.org/Graphics/SVG/1.1/DTD/svg11.dtd">
<!-- Generated by graphviz version 2.42.4 (0)
 -->
<!-- Title: G Pages: 1 -->
<svg width="474pt" height="563pt"
 viewBox="0.00 0.00 474.20 563.20" xmlns="http://www.w3.org/2000/svg" xmlns:xlink="http://www.w3.org/1999/xlink">
<g id="graph0" class="graph" transform="scale(1 1) rotate(0) translate(21.6 541.6)">
<title>G</title>
<polygon fill="white" stroke="transparent" points="-21.6,21.6 -21.6,-541.6 452.6,-541.6 452.6,21.6 -21.6,21.6"/>
<text text-anchor="middle" x="215.5" y="-498.4" font-family="Arial" font-size="22.00">LOCALITO · CICLO DE DECISIÓN ÉTICA</text>
<!-- a -->
<g id="node1" class="node">
<title>a</title>
<path fill="#ffffff" stroke="#486581" d="M380,-488C380,-488 51,-488 51,-488 45,-488 39,-482 39,-476 39,-476 39,-460 39,-460 39,-454 45,-448 51,-448 51,-448 380,-448 380,-448 386,-448 392,-454 392,-460 392,-460 392,-476 392,-476 392,-482 386,-488 380,-488"/>
<text text-anchor="middle" x="215.5" y="-471.8" font-family="Arial" font-size="11.50">Detectar dilema</text>
<text text-anchor="middle" x="215.5" y="-458.8" font-family="Arial" font-size="11.50">privacidad · licencia · seguridad · transparencia</text>
</g>
<!-- b -->
<g id="node2" class="node">
<title>b</title>
<path fill="#ffffff" stroke="#486581" d="M380,-412C380,-412 51,-412 51,-412 45,-412 39,-406 39,-400 39,-400 39,-388 39,-388 39,-382 45,-376 51,-376 51,-376 380,-376 380,-376 386,-376 392,-382 392,-388 392,-388 392,-400 392,-400 392,-406 386,-412 380,-412"/>
<text text-anchor="middle" x="215.5" y="-391.3" font-family="Arial" font-size="11.50">Identificar afectados y daño posible</text>
</g>
<!-- a&#45;&gt;b -->
<g id="edge1" class="edge">
<title>a&#45;&gt;b</title>
<path fill="none" stroke="#64748b" d="M215.5,-447.71C215.5,-439.2 215.5,-429.1 215.5,-420.02"/>
<polygon fill="#64748b" stroke="#64748b" points="218.13,-419.88 215.5,-412.38 212.88,-419.88 218.13,-419.88"/>
</g>
<!-- c -->
<g id="node3" class="node">
<title>c</title>
<path fill="#e8f3f0" stroke="#1f6f5f" d="M380,-340C380,-340 51,-340 51,-340 45,-340 39,-334 39,-328 39,-328 39,-312 39,-312 39,-306 45,-300 51,-300 51,-300 380,-300 380,-300 386,-300 392,-306 392,-312 392,-312 392,-328 392,-328 392,-334 386,-340 380,-340"/>
<text text-anchor="middle" x="215.5" y="-323.8" font-family="Arial" font-size="11.50">Contrastar con integridad, responsabilidad,</text>
<text text-anchor="middle" x="215.5" y="-310.8" font-family="Arial" font-size="11.50">laboriosidad y bien hacer</text>
</g>
<!-- b&#45;&gt;c -->
<g id="edge2" class="edge">
<title>b&#45;&gt;c</title>
<path fill="none" stroke="#64748b" d="M215.5,-375.94C215.5,-367.56 215.5,-357.26 215.5,-347.85"/>
<polygon fill="#64748b" stroke="#64748b" points="218.13,-347.73 215.5,-340.23 212.88,-347.73 218.13,-347.73"/>
</g>
<!-- d -->
<g id="node4" class="node">
<title>d</title>
<path fill="#ffffff" stroke="#486581" d="M380,-264C380,-264 51,-264 51,-264 45,-264 39,-258 39,-252 39,-252 39,-236 39,-236 39,-230 45,-224 51,-224 51,-224 380,-224 380,-224 386,-224 392,-230 392,-236 392,-236 392,-252 392,-252 392,-258 386,-264 380,-264"/>
<text text-anchor="middle" x="215.5" y="-247.8" font-family="Arial" font-size="11.50">Buscar alternativa constructiva</text>
<text text-anchor="middle" x="215.5" y="-234.8" font-family="Arial" font-size="11.50">que preserve calidad y dignidad</text>
</g>
<!-- c&#45;&gt;d -->
<g id="edge3" class="edge">
<title>c&#45;&gt;d</title>
<path fill="none" stroke="#64748b" d="M215.5,-299.94C215.5,-291.38 215.5,-281.12 215.5,-271.8"/>
<polygon fill="#64748b" stroke="#64748b" points="218.13,-271.75 215.5,-264.25 212.88,-271.75 218.13,-271.75"/>
</g>
<!-- e -->
<g id="node5" class="node">
<title>e</title>
<path fill="#ffffff" stroke="#486581" d="M380,-188C380,-188 51,-188 51,-188 45,-188 39,-182 39,-176 39,-176 39,-164 39,-164 39,-158 45,-152 51,-152 51,-152 380,-152 380,-152 386,-152 392,-158 392,-164 392,-164 392,-176 392,-176 392,-182 386,-188 380,-188"/>
<text text-anchor="middle" x="215.5" y="-167.3" font-family="Arial" font-size="11.50">Dialogar y documentar</text>
</g>
<!-- d&#45;&gt;e -->
<g id="edge4" class="edge">
<title>d&#45;&gt;e</title>
<path fill="none" stroke="#64748b" d="M215.5,-223.71C215.5,-215.2 215.5,-205.1 215.5,-196.02"/>
<polygon fill="#64748b" stroke="#64748b" points="218.13,-195.88 215.5,-188.38 212.88,-195.88 218.13,-195.88"/>
</g>
<!-- f -->
<g id="node6" class="node">
<title>f</title>
<path fill="#ffffff" stroke="#486581" d="M380,-116C380,-116 51,-116 51,-116 45,-116 39,-110 39,-104 39,-104 39,-88 39,-88 39,-82 45,-76 51,-76 51,-76 380,-76 380,-76 386,-76 392,-82 392,-88 392,-88 392,-104 392,-104 392,-110 386,-116 380,-116"/>
<text text-anchor="middle" x="215.5" y="-99.8" font-family="Arial" font-size="11.50">Escalar si persiste el riesgo</text>
<text text-anchor="middle" x="215.5" y="-86.8" font-family="Arial" font-size="11.50">sin ocultar ni normalizar la práctica</text>
</g>
<!-- e&#45;&gt;f -->
<g id="edge5" class="edge">
<title>e&#45;&gt;f</title>
<path fill="none" stroke="#64748b" d="M215.5,-151.94C215.5,-143.56 215.5,-133.26 215.5,-123.85"/>
<polygon fill="#64748b" stroke="#64748b" points="218.13,-123.73 215.5,-116.23 212.88,-123.73 218.13,-123.73"/>
</g>
<!-- g -->
<g id="node7" class="node">
<title>g</title>
<path fill="#eff6ff" stroke="#1d4ed8" d="M380,-40C380,-40 51,-40 51,-40 45,-40 39,-34 39,-28 39,-28 39,-12 39,-12 39,-6 45,0 51,0 51,0 380,0 380,0 386,0 392,-6 392,-12 392,-12 392,-28 392,-28 392,-34 386,-40 380,-40"/>
<text text-anchor="middle" x="215.5" y="-23.8" font-family="Arial" font-size="11.50">Convertir la respuesta en control,</text>
<text text-anchor="middle" x="215.5" y="-10.8" font-family="Arial" font-size="11.50">PBI, criterio o política</text>
</g>
<!-- f&#45;&gt;g -->
<g id="edge6" class="edge">
<title>f&#45;&gt;g</title>
<path fill="none" stroke="#64748b" d="M215.5,-75.94C215.5,-67.38 215.5,-57.12 215.5,-47.8"/>
<polygon fill="#64748b" stroke="#64748b" points="218.13,-47.75 215.5,-40.25 212.88,-47.75 218.13,-47.75"/>
</g>
</g>
</svg>
