<?xml version="1.0" encoding="UTF-8" standalone="no"?>
<!DOCTYPE svg PUBLIC "-//W3C//DTD SVG 1.1//EN"
 "http://www.w3.org/Graphics/SVG/1.1/DTD/svg11.dtd">
<!-- Generated by graphviz version 2.42.4 (0)
 -->
<!-- Title: G Pages: 1 -->
<svg width="1065pt" height="420pt"
 viewBox="0.00 0.00 1065.20 420.20" xmlns="http://www.w3.org/2000/svg" xmlns:xlink="http://www.w3.org/1999/xlink">
<g id="graph0" class="graph" transform="scale(1 1) rotate(0) translate(21.6 398.6)">
<title>G</title>
<polygon fill="white" stroke="transparent" points="-21.6,21.6 -21.6,-398.6 1043.6,-398.6 1043.6,21.6 -21.6,21.6"/>
<text text-anchor="middle" x="511" y="-355.4" font-family="Arial" font-size="22.00">LOCALITO · CONTINUIDAD OFFLINE E INTEGRACIÓN CON API</text>
<!-- a -->
<g id="node1" class="node">
<title>a</title>
<path fill="#ffffff" stroke="#486581" stroke-width="1.2" d="M661,-345C661,-345 361,-345 361,-345 355,-345 349,-339 349,-333 349,-333 349,-321 349,-321 349,-315 355,-309 361,-309 361,-309 661,-309 661,-309 667,-309 673,-315 673,-321 673,-321 673,-333 673,-333 673,-339 667,-345 661,-345"/>
<text text-anchor="middle" x="511" y="-323.9" font-family="Arial" font-size="12.00">Venta creada sin conexión</text>
</g>
<!-- b -->
<g id="node2" class="node">
<title>b</title>
<path fill="#ffffff" stroke="#486581" stroke-width="1.2" d="M661,-277C661,-277 361,-277 361,-277 355,-277 349,-271 349,-265 349,-265 349,-245 349,-245 349,-239 355,-233 361,-233 361,-233 661,-233 661,-233 667,-233 673,-239 673,-245 673,-245 673,-265 673,-265 673,-271 667,-277 661,-277"/>
<text text-anchor="middle" x="511" y="-258.4" font-family="Arial" font-size="12.00">IndexedDB</text>
<text text-anchor="middle" x="511" y="-245.4" font-family="Arial" font-size="12.00">cola por negocio / usuario</text>
</g>
<!-- a&#45;&gt;b -->
<g id="edge1" class="edge">
<title>a&#45;&gt;b</title>
<path fill="none" stroke="#64748b" stroke-width="1.05" d="M511,-308.7C511,-301.46 511,-292.84 511,-284.7"/>
<polygon fill="#64748b" stroke="#64748b" stroke-width="1.05" points="513.63,-284.6 511,-277.1 508.38,-284.6 513.63,-284.6"/>
</g>
<!-- c -->
<g id="node3" class="node">
<title>c</title>
<path fill="#ffffff" stroke="#486581" stroke-width="1.2" d="M661,-201C661,-201 361,-201 361,-201 355,-201 349,-195 349,-189 349,-189 349,-177 349,-177 349,-171 355,-165 361,-165 361,-165 661,-165 661,-165 667,-165 673,-171 673,-177 673,-177 673,-189 673,-189 673,-195 667,-201 661,-201"/>
<text text-anchor="middle" x="511" y="-179.9" font-family="Arial" font-size="12.00">Recupera conexión</text>
</g>
<!-- b&#45;&gt;c -->
<g id="edge2" class="edge">
<title>b&#45;&gt;c</title>
<path fill="none" stroke="#64748b" stroke-width="1.05" d="M511,-233C511,-225.39 511,-216.72 511,-208.81"/>
<polygon fill="#64748b" stroke="#64748b" stroke-width="1.05" points="513.63,-208.72 511,-201.22 508.38,-208.72 513.63,-208.72"/>
</g>
<!-- d -->
<g id="node4" class="node">
<title>d</title>
<path fill="#ffffff" stroke="#486581" stroke-width="1.2" d="M661,-133C661,-133 361,-133 361,-133 355,-133 349,-127 349,-121 349,-121 349,-101 349,-101 349,-95 355,-89 361,-89 361,-89 661,-89 661,-89 667,-89 673,-95 673,-101 673,-101 673,-121 673,-121 673,-127 667,-133 661,-133"/>
<text text-anchor="middle" x="511" y="-114.4" font-family="Arial" font-size="12.00">POST /sales</text>
<text text-anchor="middle" x="511" y="-101.4" font-family="Arial" font-size="12.00">Idempotency&#45;Key</text>
</g>
<!-- c&#45;&gt;d -->
<g id="edge3" class="edge">
<title>c&#45;&gt;d</title>
<path fill="none" stroke="#64748b" stroke-width="1.05" d="M511,-164.7C511,-157.46 511,-148.84 511,-140.7"/>
<polygon fill="#64748b" stroke="#64748b" stroke-width="1.05" points="513.63,-140.6 511,-133.1 508.38,-140.6 513.63,-140.6"/>
</g>
<!-- ok -->
<g id="node5" class="node">
<title>ok</title>
<path fill="#dcfce7" stroke="#15803d" stroke-width="1.2" d="M312,-57C312,-57 12,-57 12,-57 6,-57 0,-51 0,-45 0,-45 0,-12 0,-12 0,-6 6,0 12,0 12,0 312,0 312,0 318,0 324,-6 324,-12 324,-12 324,-45 324,-45 324,-51 318,-57 312,-57"/>
<text text-anchor="middle" x="162" y="-38.4" font-family="Arial" font-size="12.00">2xx</text>
<text text-anchor="middle" x="162" y="-25.4" font-family="Arial" font-size="12.00">venta registrada una vez</text>
<text text-anchor="middle" x="162" y="-12.4" font-family="Arial" font-size="12.00">stock actualizado</text>
</g>
<!-- d&#45;&gt;ok -->
<g id="edge4" class="edge">
<title>d&#45;&gt;ok</title>
<path fill="none" stroke="#64748b" stroke-width="1.05" d="M419.76,-88.95C379.76,-79.73 332.14,-68.74 288.78,-58.74"/>
<polygon fill="#64748b" stroke="#64748b" stroke-width="1.05" points="289.2,-56.15 281.3,-57.02 288.02,-61.26 289.2,-56.15"/>
</g>
<!-- review -->
<g id="node6" class="node">
<title>review</title>
<path fill="#fef3c7" stroke="#a16207" stroke-width="1.2" d="M661,-50.5C661,-50.5 361,-50.5 361,-50.5 355,-50.5 349,-44.5 349,-38.5 349,-38.5 349,-18.5 349,-18.5 349,-12.5 355,-6.5 361,-6.5 361,-6.5 661,-6.5 661,-6.5 667,-6.5 673,-12.5 673,-18.5 673,-18.5 673,-38.5 673,-38.5 673,-44.5 667,-50.5 661,-50.5"/>
<text text-anchor="middle" x="511" y="-31.9" font-family="Arial" font-size="12.00">400 / 404 / 409 / 413 / 422</text>
<text text-anchor="middle" x="511" y="-18.9" font-family="Arial" font-size="12.00">queda pendiente de revisión</text>
</g>
<!-- d&#45;&gt;review -->
<g id="edge5" class="edge">
<title>d&#45;&gt;review</title>
<path fill="none" stroke="#64748b" stroke-width="1.05" d="M511,-88.85C511,-79.42 511,-68.17 511,-58.01"/>
<polygon fill="#64748b" stroke="#64748b" stroke-width="1.05" points="513.63,-58.01 511,-50.51 508.38,-58.01 513.63,-58.01"/>
</g>
<!-- retry -->
<g id="node7" class="node">
<title>retry</title>
<path fill="#fee2e2" stroke="#b91c1c" stroke-width="1.2" d="M1010,-50.5C1010,-50.5 710,-50.5 710,-50.5 704,-50.5 698,-44.5 698,-38.5 698,-38.5 698,-18.5 698,-18.5 698,-12.5 704,-6.5 710,-6.5 710,-6.5 1010,-6.5 1010,-6.5 1016,-6.5 1022,-12.5 1022,-18.5 1022,-18.5 1022,-38.5 1022,-38.5 1022,-44.5 1016,-50.5 1010,-50.5"/>
<text text-anchor="middle" x="860" y="-31.9" font-family="Arial" font-size="12.00">Red / 401 / 403 / 429 / 5xx</text>
<text text-anchor="middle" x="860" y="-18.9" font-family="Arial" font-size="12.00">detiene ciclo y se reintenta después</text>
</g>
<!-- d&#45;&gt;retry -->
<g id="edge6" class="edge">
<title>d&#45;&gt;retry</title>
<path fill="none" stroke="#64748b" stroke-width="1.05" d="M602.24,-88.95C651.03,-77.7 711.17,-63.83 761.08,-52.32"/>
<polygon fill="#64748b" stroke="#64748b" stroke-width="1.05" points="761.97,-54.81 768.69,-50.56 760.79,-49.69 761.97,-54.81"/>
</g>
</g>
</svg>
