<?xml version="1.0" encoding="UTF-8" standalone="no"?>
<!DOCTYPE svg PUBLIC "-//W3C//DTD SVG 1.1//EN"
 "http://www.w3.org/Graphics/SVG/1.1/DTD/svg11.dtd">
<!-- Generated by graphviz version 2.42.4 (0)
 -->
<!-- Title: G Pages: 1 -->
<svg width="616pt" height="565pt"
 viewBox="0.00 0.00 616.40 565.40" xmlns="http://www.w3.org/2000/svg" xmlns:xlink="http://www.w3.org/1999/xlink">
<g id="graph0" class="graph" transform="scale(1 1) rotate(0) translate(25.2 540.2)">
<title>G</title>
<polygon fill="white" stroke="transparent" points="-25.2,25.2 -25.2,-540.2 591.2,-540.2 591.2,25.2 -25.2,25.2"/>
<text text-anchor="middle" x="283" y="-493.4" font-family="Arial" font-size="22.00">LOCALITO · PITCH NABC</text>
<!-- hook -->
<g id="node1" class="node">
<title>hook</title>
<path fill="#fffbeb" stroke="#d97706" stroke-width="1.25" d="M465.5,-483C465.5,-483 100.5,-483 100.5,-483 94.5,-483 88.5,-477 88.5,-471 88.5,-471 88.5,-438 88.5,-438 88.5,-432 94.5,-426 100.5,-426 100.5,-426 465.5,-426 465.5,-426 471.5,-426 477.5,-432 477.5,-438 477.5,-438 477.5,-471 477.5,-471 477.5,-477 471.5,-483 465.5,-483"/>
<text text-anchor="middle" x="283" y="-464.4" font-family="Arial" font-size="12.00">Gancho</text>
<text text-anchor="middle" x="283" y="-451.4" font-family="Arial" font-size="12.00">El almacén puede vender todo el día y aun así no saber con certeza</text>
<text text-anchor="middle" x="283" y="-438.4" font-family="Arial" font-size="12.00">qué stock queda, cuánto fiado hay o si la caja realmente cuadra.</text>
</g>
<!-- n -->
<g id="node2" class="node">
<title>n</title>
<path fill="#ffffff" stroke="#486581" stroke-width="1.25" d="M471,-390C471,-390 95,-390 95,-390 89,-390 83,-384 83,-378 83,-378 83,-358 83,-358 83,-352 89,-346 95,-346 95,-346 471,-346 471,-346 477,-346 483,-352 483,-358 483,-358 483,-378 483,-378 483,-384 477,-390 471,-390"/>
<text text-anchor="middle" x="283" y="-371.4" font-family="Arial" font-size="12.00">N · Need / Necesidad</text>
<text text-anchor="middle" x="283" y="-358.4" font-family="Arial" font-size="12.00">Operación cotidiana fragmentada, manual y con baja adopción digital.</text>
</g>
<!-- hook&#45;&gt;n -->
<g id="edge1" class="edge">
<title>hook&#45;&gt;n</title>
<path fill="none" stroke="#64748b" stroke-width="1.05" d="M283,-425.83C283,-416.82 283,-406.81 283,-397.72"/>
<polygon fill="#64748b" stroke="#64748b" stroke-width="1.05" points="285.63,-397.53 283,-390.03 280.38,-397.53 285.63,-397.53"/>
</g>
<!-- a -->
<g id="node3" class="node">
<title>a</title>
<path fill="#e8f3f0" stroke="#1f6f5f" stroke-width="1.25" d="M471.5,-310C471.5,-310 94.5,-310 94.5,-310 88.5,-310 82.5,-304 82.5,-298 82.5,-298 82.5,-278 82.5,-278 82.5,-272 88.5,-266 94.5,-266 94.5,-266 471.5,-266 471.5,-266 477.5,-266 483.5,-272 483.5,-278 483.5,-278 483.5,-298 483.5,-298 483.5,-304 477.5,-310 471.5,-310"/>
<text text-anchor="middle" x="283" y="-291.4" font-family="Arial" font-size="12.00">A · Approach / Acercamiento</text>
<text text-anchor="middle" x="283" y="-278.4" font-family="Arial" font-size="12.00">PWA móvil que integra POS, inventario, caja, fiado y asistencia visual.</text>
</g>
<!-- n&#45;&gt;a -->
<g id="edge2" class="edge">
<title>n&#45;&gt;a</title>
<path fill="none" stroke="#64748b" stroke-width="1.05" d="M283,-345.69C283,-337.02 283,-326.87 283,-317.57"/>
<polygon fill="#64748b" stroke="#64748b" stroke-width="1.05" points="285.63,-317.52 283,-310.02 280.38,-317.52 285.63,-317.52"/>
</g>
<!-- b -->
<g id="node4" class="node">
<title>b</title>
<path fill="#ffffff" stroke="#486581" stroke-width="1.25" d="M494,-230C494,-230 72,-230 72,-230 66,-230 60,-224 60,-218 60,-218 60,-198 60,-198 60,-192 66,-186 72,-186 72,-186 494,-186 494,-186 500,-186 506,-192 506,-198 506,-198 506,-218 506,-218 506,-224 500,-230 494,-230"/>
<text text-anchor="middle" x="283" y="-211.4" font-family="Arial" font-size="12.00">B · Benefits / Beneficios</text>
<text text-anchor="middle" x="283" y="-198.4" font-family="Arial" font-size="12.00">Menos fricción, más visibilidad, trabajo desde el celular y adopción progresiva.</text>
</g>
<!-- a&#45;&gt;b -->
<g id="edge3" class="edge">
<title>a&#45;&gt;b</title>
<path fill="none" stroke="#64748b" stroke-width="1.05" d="M283,-265.69C283,-257.02 283,-246.87 283,-237.57"/>
<polygon fill="#64748b" stroke="#64748b" stroke-width="1.05" points="285.63,-237.52 283,-230.02 280.38,-237.52 285.63,-237.52"/>
</g>
<!-- c -->
<g id="node5" class="node">
<title>c</title>
<path fill="#f5f3ff" stroke="#6d28d9" stroke-width="1.25" d="M468.5,-150C468.5,-150 97.5,-150 97.5,-150 91.5,-150 85.5,-144 85.5,-138 85.5,-138 85.5,-105 85.5,-105 85.5,-99 91.5,-93 97.5,-93 97.5,-93 468.5,-93 468.5,-93 474.5,-93 480.5,-99 480.5,-105 480.5,-105 480.5,-138 480.5,-138 480.5,-144 474.5,-150 468.5,-150"/>
<text text-anchor="middle" x="283" y="-131.4" font-family="Arial" font-size="12.00">C · Competition / Competencia</text>
<text text-anchor="middle" x="283" y="-118.4" font-family="Arial" font-size="12.00">POS maduros y soluciones de nicho ya cubren funciones base;</text>
<text text-anchor="middle" x="283" y="-105.4" font-family="Arial" font-size="12.00">Localito compite por simplicidad móvil, fiado y flujo visual controlado.</text>
</g>
<!-- b&#45;&gt;c -->
<g id="edge4" class="edge">
<title>b&#45;&gt;c</title>
<path fill="none" stroke="#64748b" stroke-width="1.05" d="M283,-185.68C283,-177.27 283,-167.39 283,-157.97"/>
<polygon fill="#64748b" stroke="#64748b" stroke-width="1.05" points="285.63,-157.71 283,-150.21 280.38,-157.71 285.63,-157.71"/>
</g>
<!-- close -->
<g id="node6" class="node">
<title>close</title>
<path fill="#eff6ff" stroke="#1d4ed8" stroke-width="1.25" d="M554,-57C554,-57 12,-57 12,-57 6,-57 0,-51 0,-45 0,-45 0,-12 0,-12 0,-6 6,0 12,0 12,0 554,0 554,0 560,0 566,-6 566,-12 566,-12 566,-45 566,-45 566,-51 560,-57 554,-57"/>
<text text-anchor="middle" x="283" y="-38.4" font-family="Arial" font-size="12.00">Cierre</text>
<text text-anchor="middle" x="283" y="-25.4" font-family="Arial" font-size="12.00">Digitalizar un negocio de barrio no debería significar cambiar su forma de trabajar de un día para otro;</text>
<text text-anchor="middle" x="283" y="-12.4" font-family="Arial" font-size="12.00">Localito busca acompañar esa transición.</text>
</g>
<!-- c&#45;&gt;close -->
<g id="edge5" class="edge">
<title>c&#45;&gt;close</title>
<path fill="none" stroke="#64748b" stroke-width="1.05" d="M283,-92.7C283,-83.88 283,-74.01 283,-64.74"/>
<polygon fill="#64748b" stroke="#64748b" stroke-width="1.05" points="285.63,-64.63 283,-57.13 280.38,-64.63 285.63,-64.63"/>
</g>
</g>
</svg>
